<svg width="498" height="129" viewBox="0 0 498 129" fill="none" xmlns="http://www.w3.org/2000/svg">
<path d="M0 129V0H56.5271C67.8189 0 77.2741 0.951028 84.8927 2.85308C92.5113 4.61928 98.6333 7.81201 103.259 12.4313C107.884 17.0506 111.218 23.5039 113.258 31.7915C115.299 39.9431 116.319 50.4724 116.319 63.3791C116.319 76.8294 115.299 87.8341 113.258 96.3934C111.218 104.953 107.884 111.61 103.259 116.365C98.6333 121.12 92.5113 124.449 84.8927 126.351C77.2741 128.117 67.8189 129 56.5271 129H0ZM51.8335 27.5119H32.651V101.488H51.8335C59.7242 101.488 65.9143 100.605 70.4038 98.8389C75.0294 97.0727 78.2945 93.4724 80.1991 88.0379C82.2398 82.6035 83.2601 74.3839 83.2601 63.3791C83.2601 52.9179 82.2398 45.1738 80.1991 40.1469C78.2945 34.9842 75.0294 31.5877 70.4038 29.9573C65.9143 28.327 59.7242 27.5119 51.8335 27.5119Z" fill="#151622"/>
<path d="M255.07 128.389V129H220.379C219.426 125.739 218.27 122.003 216.909 117.791C215.685 113.58 214.324 109.096 212.828 104.341H168.749C166.028 113.851 163.511 122.071 161.199 129H126.507V128.592L168.341 0H213.236L255.07 128.389ZM190.38 23.2322C189.02 30.1611 187.047 38.5845 184.462 48.5024C181.878 58.4202 179.157 68.5419 176.3 78.8673H205.481C202.488 68.5419 199.7 58.4202 197.115 48.5024C194.53 38.5845 192.557 30.1611 191.197 23.2322H190.38Z" fill="#151622"/>
<path d="M295.964 129V27.5119H259.231V0H365.347V27.5119H328.615V129H295.964Z" fill="#151622"/>
<path d="M498 128.389V129H463.308C462.356 125.739 461.2 122.003 459.839 117.791C458.615 113.58 457.254 109.096 455.758 104.341H411.679C408.958 113.851 406.441 122.071 404.128 129H369.437V128.592L411.271 0H456.166L498 128.389ZM433.31 23.2322C431.95 30.1611 429.977 38.5845 427.392 48.5024C424.807 58.4202 422.086 68.5419 419.229 78.8673H448.411C445.418 68.5419 442.629 58.4202 440.044 48.5024C437.46 38.5845 435.487 30.1611 434.126 23.2322H433.31Z" fill="#151622"/>
</svg>
