<svg width="158" height="41" viewBox="0 0 158 41" fill="none" xmlns="http://www.w3.org/2000/svg">
<path d="M0.0968744 24.5682C0.807287 24.8104 1.58228 25.0042 2.42186 25.1495C3.27758 25.2787 4.12524 25.3432 4.96481 25.3432C6.11116 25.3432 6.95881 25.2948 7.50777 25.1979C8.07287 25.0849 8.44422 24.9154 8.62182 24.6893C8.79943 24.4633 8.88823 24.1727 8.88823 23.8175C8.88823 23.5107 8.82364 23.2685 8.69448 23.0909C8.56531 22.9133 8.31505 22.7761 7.9437 22.6792C7.57235 22.5662 7.02339 22.4774 6.29684 22.4128L4.69841 22.2675C3.50362 22.1545 2.5591 21.9042 1.86483 21.5167C1.18671 21.1292 0.702339 20.6125 0.411716 19.9667C0.137239 19.3047 0 18.5136 0 17.5933C0 16.4954 0.217967 15.6074 0.653902 14.9292C1.10598 14.2511 1.83254 13.7587 2.83358 13.4519C3.83461 13.129 5.16664 12.9675 6.82965 12.9675C8.99317 12.9675 10.7773 13.2501 12.182 13.8152L12.1093 17.1089L12.0366 17.2058C10.4382 16.6407 8.76713 16.3581 7.02339 16.3581C6.18382 16.3581 5.53799 16.4066 5.08591 16.5034C4.63383 16.5842 4.31898 16.7214 4.14138 16.9152C3.96378 17.1089 3.87498 17.3834 3.87498 17.7386C3.87498 18.0938 3.93149 18.3602 4.04451 18.5378C4.17367 18.7154 4.42393 18.8526 4.79528 18.9495C5.16663 19.0303 5.70752 19.111 6.41793 19.1917L7.9437 19.3612C9.23536 19.5066 10.2283 19.7649 10.9226 20.1362C11.6169 20.5076 12.0932 21.0081 12.3515 21.6378C12.626 22.2513 12.7632 23.0021 12.7632 23.8901C12.7632 24.9719 12.5291 25.876 12.0609 26.6026C11.6088 27.313 10.8661 27.8458 9.83275 28.201C8.79943 28.5562 7.41897 28.7338 5.69137 28.7338C4.56117 28.7338 3.54399 28.6773 2.63983 28.5643C1.73567 28.4351 0.855724 28.2656 0 28.0557V24.6409L0.0968744 24.5682Z" fill="black"/>
<path d="M19.0703 28.5159H15.1953V13.1855H19.0703V19.0464H24.8827V13.1855H28.7577V28.5159H24.8827V22.1948H19.0703V28.5159Z" fill="black"/>
<path d="M35.5313 28.5159H31.6564V13.1855H35.5313V28.5159Z" fill="black"/>
<path d="M42.3192 28.5159H38.4442V13.1855H45.2738C46.8077 13.1855 48.0348 13.3712 48.9551 13.7425C49.8754 14.1139 50.5373 14.7193 50.941 15.5589C51.3446 16.3985 51.5465 17.5368 51.5465 18.9737C51.5465 20.33 51.3446 21.436 50.941 22.2917C50.5373 23.1313 49.8754 23.7529 48.9551 24.1565C48.0348 24.5602 46.8077 24.762 45.2738 24.762H42.3192V28.5159ZM44.6442 16.3581H42.3192V21.5894H44.6442C45.7905 21.5894 46.5574 21.3956 46.9449 21.0081C47.3324 20.6206 47.5262 19.9425 47.5262 18.9737C47.5262 18.0534 47.3324 17.3915 46.9449 16.9878C46.5574 16.568 45.7905 16.3581 44.6442 16.3581Z" fill="black"/>
<path d="M98.8981 28.5159V13.1855H105.607C106.947 13.1855 108.069 13.2986 108.973 13.5246C109.877 13.7345 110.604 14.1139 111.153 14.6629C111.702 15.2118 112.097 15.9788 112.339 16.9636C112.582 17.9324 112.703 19.1837 112.703 20.7175C112.703 22.316 112.582 23.6238 112.339 24.6409C112.097 25.6581 111.702 26.4493 111.153 27.0144C110.604 27.5795 109.877 27.975 108.973 28.2011C108.069 28.411 106.947 28.5159 105.607 28.5159H98.8981ZM105.05 16.4551H102.773V25.2464H105.05C105.986 25.2464 106.721 25.1415 107.254 24.9316C107.803 24.7217 108.19 24.2938 108.416 23.648C108.658 23.0022 108.779 22.0253 108.779 20.7175C108.779 19.4743 108.658 18.554 108.416 17.9566C108.19 17.3431 107.803 16.9394 107.254 16.7457C106.721 16.5519 105.986 16.4551 105.05 16.4551Z" fill="black"/>
<path d="M129.169 28.4433V28.5159H125.052C124.939 28.1284 124.802 27.6844 124.641 27.1839C124.495 26.6834 124.334 26.1506 124.156 25.5855H118.925C118.602 26.7157 118.303 27.6925 118.029 28.5159H113.912V28.4675L118.877 13.1855H124.205L129.169 28.4433ZM121.492 15.9465C121.331 16.7699 121.097 17.7709 120.79 18.9496C120.483 20.1282 120.16 21.3311 119.821 22.5581H123.284C122.929 21.3311 122.598 20.1282 122.291 18.9496C121.985 17.7709 121.751 16.7699 121.589 15.9465H121.492Z" fill="black"/>
<path d="M134.023 28.5159V16.4551H129.663V13.1855H142.257V16.4551H137.898V28.5159H134.023Z" fill="black"/>
<path d="M158 28.4433V28.5159H153.883C153.77 28.1284 153.633 27.6844 153.471 27.1839C153.326 26.6834 153.164 26.1506 152.987 25.5855H147.756C147.433 26.7157 147.134 27.6925 146.859 28.5159H142.742V28.4675L147.707 13.1855H153.035L158 28.4433ZM150.323 15.9465C150.161 16.7699 149.927 17.7709 149.62 18.9496C149.314 20.1282 148.991 21.3311 148.652 22.5581H152.115C151.76 21.3311 151.429 20.1282 151.122 18.9496C150.815 17.7709 150.581 16.7699 150.42 15.9465H150.323Z" fill="black"/>
<path d="M85.5988 20.5642L82.0984 20.5642L82.0984 17.0639L85.5988 17.0639L85.5988 20.5642Z" fill="#FF4016"/>
<path d="M77.2855 33.2529L73.7852 33.2529L73.7852 29.7526L77.2855 29.7526L77.2855 33.2529Z" fill="#FF4016"/>
<path d="M71.16 40.6912L68.5347 40.6912L68.5347 38.0659L71.16 38.0659L71.16 40.6912Z" fill="#FF4016"/>
<path d="M56 41L53 41L53 38L56 38L56 41Z" fill="#FF4016"/>
<path d="M82.5359 40.6912L79.9107 40.6912L79.9107 38.0659L82.5359 38.0659L82.5359 40.6912Z" fill="#FF4016"/>
<path d="M99.6 40.6912L96.9748 40.6912L96.9748 38.0659L99.6 38.0659L99.6 40.6912Z" fill="#FF4016"/>
<path fill-rule="evenodd" clip-rule="evenodd" d="M55 39L69 39L69 40L55 40L55 39Z" fill="#FF4016"/>
<path fill-rule="evenodd" clip-rule="evenodd" d="M82.0985 38.9408L96.9748 38.9408L96.9748 39.8159L82.0985 39.8159L82.0985 38.9408Z" fill="#FF4016"/>
<path fill-rule="evenodd" clip-rule="evenodd" d="M76.9306 32.4152L81.306 38.1032L80.2656 38.9036L75.8902 33.2156L76.9306 32.4152Z" fill="#FF4016"/>
<path fill-rule="evenodd" clip-rule="evenodd" d="M69.7051 39.1313L83.4876 19.0045L84.2096 19.4989L70.4272 39.6257L69.7051 39.1313Z" fill="#FF4016"/>
<path fill-rule="evenodd" clip-rule="evenodd" d="M75.2126 30.7012L83.3071 18.8807L84.3901 19.6224L76.2956 31.4429L75.2126 30.7012Z" fill="#FF4016"/>
<path fill-rule="evenodd" clip-rule="evenodd" d="M97.7631 39.1169L83.1055 19.6464L84.1542 18.857L98.8118 38.3275L97.7631 39.1169Z" fill="#FF4016"/>
<path d="M65.4719 20.127H68.9722V23.6273H65.4719V20.127Z" fill="#FF4016"/>
<path d="M73.7852 7.43823H77.2855V10.9385H73.7852V7.43823Z" fill="#FF4016"/>
<path d="M79.9107 0H82.5359V2.62524H79.9107V0Z" fill="#FF4016"/>
<path d="M94.9999 0.000244141H97.9999V3.00024H94.9999V0.000244141Z" fill="#FF4016"/>
<path d="M68.5347 0H71.1599V2.62524H68.5347V0Z" fill="#FF4016"/>
<path d="M51.4707 0H54.0959V2.62524H51.4707V0Z" fill="#FF4016"/>
<path fill-rule="evenodd" clip-rule="evenodd" d="M96.9999 2.00024H81.9999V1.00024H96.9999V2.00024Z" fill="#FF4016"/>
<path fill-rule="evenodd" clip-rule="evenodd" d="M68.9722 1.75032H54.0959V0.875244H68.9722V1.75032Z" fill="#FF4016"/>
<path fill-rule="evenodd" clip-rule="evenodd" d="M74.14 8.27593L69.7646 2.58792L70.8051 1.7876L75.1805 7.47561L74.14 8.27593Z" fill="#FF4016"/>
<path fill-rule="evenodd" clip-rule="evenodd" d="M81.3655 1.55985L67.5831 21.6867L66.8611 21.1922L80.6435 1.06543L81.3655 1.55985Z" fill="#FF4016"/>
<path fill-rule="evenodd" clip-rule="evenodd" d="M75.8581 9.98968L67.7636 21.8102L66.6806 21.0686L74.7751 9.24805L75.8581 9.98968Z" fill="#FF4016"/>
<path fill-rule="evenodd" clip-rule="evenodd" d="M53.3077 1.57422L67.9652 21.0447L66.9165 21.8342L52.259 2.36367L53.3077 1.57422Z" fill="#FF4016"/>
</svg>
