<svg width="435" height="133" viewBox="0 0 435 133" fill="none" xmlns="http://www.w3.org/2000/svg">
<path d="M0.817522 97.8602C6.81269 99.9032 13.3529 101.538 20.4381 102.763C27.6595 103.853 34.8128 104.398 41.898 104.398C51.572 104.398 58.7253 103.989 63.358 103.172C68.1268 102.219 71.2607 100.789 72.7595 98.8817C74.2583 96.9749 75.0077 94.5233 75.0077 91.5269C75.0077 88.9391 74.4626 86.8961 73.3726 85.3979C72.2826 83.8996 70.1707 82.7419 67.0368 81.9247C63.903 80.9713 59.2704 80.2222 53.1389 79.6774L39.6498 78.4516C29.5671 77.4982 21.5962 75.3871 15.7373 72.1183C10.0146 68.8495 5.92704 64.491 3.47447 59.043C1.15816 53.4588 0 46.785 0 39.0215C0 29.7599 1.83942 22.2688 5.51827 16.5484C9.33338 10.828 15.4648 6.67383 23.9125 4.08602C32.3603 1.36201 43.6012 0 57.6353 0C75.8933 0 90.9493 2.38351 102.803 7.15053L102.19 34.9355L101.577 35.7527C88.088 30.9857 73.9858 28.6021 59.2704 28.6021C52.1852 28.6021 46.735 29.0108 42.9199 29.828C39.1048 30.509 36.4479 31.6667 34.9491 33.3011C33.4503 34.9355 32.7009 37.2509 32.7009 40.2473C32.7009 43.2437 33.1778 45.491 34.1315 46.9892C35.2216 48.4875 37.3335 49.6452 40.4673 50.4624C43.6012 51.1434 48.1657 51.8244 54.1608 52.5054L67.0368 53.9355C77.9371 55.1613 86.3167 57.3405 92.1756 60.4731C98.0345 63.6057 102.054 67.828 104.234 73.1398C106.55 78.3154 107.709 84.6488 107.709 92.1398C107.709 101.265 105.733 108.892 101.782 115.022C97.9664 121.014 91.6987 125.509 82.9785 128.505C74.2583 131.502 62.6086 133 48.0294 133C38.4917 133 29.9077 132.523 22.2775 131.57C14.6473 130.48 7.22145 129.05 0 127.28V98.4731L0.817522 97.8602Z" fill="#151622"/>
<path d="M160.934 131.161H128.233V1.83871H160.934V51.2796H209.985V1.83871H242.686V131.161H209.985V77.8387H160.934V131.161Z" fill="#151622"/>
<path d="M299.849 131.161H267.148V1.83871H299.849V131.161Z" fill="#151622"/>
<path d="M357.131 131.161H324.43V1.83871H382.065C395.01 1.83871 405.365 3.40502 413.131 6.53764C420.898 9.67025 426.484 14.7778 429.891 21.8602C433.297 28.9427 435 38.5448 435 50.6667C435 62.1075 433.297 71.4373 429.891 78.6559C426.484 85.7383 420.898 90.9821 413.131 94.3871C405.365 97.7921 395.01 99.4946 382.065 99.4946H357.131V131.161ZM376.752 28.6021H357.131V72.7312H376.752C386.426 72.7312 392.898 71.0968 396.168 67.828C399.438 64.5591 401.073 58.8387 401.073 50.6667C401.073 42.9032 399.438 37.319 396.168 33.914C392.898 30.3728 386.426 28.6021 376.752 28.6021Z" fill="#151622"/>
</svg>
